<svg width="136" height="62" viewBox="0 0 136 62" fill="none" xmlns="http://www.w3.org/2000/svg">
<rect x="1.5" y="1.5" width="133" height="59" rx="8.5" stroke="white" stroke-width="3"/>
<path d="M29.4854 37V24.2031H33.6689C35.0576 24.2031 36.1006 24.4902 36.7979 25.0645C37.501 25.6387 37.8525 26.4883 37.8525 27.6133C37.8525 28.2109 37.6826 28.7412 37.3428 29.2041C37.0029 29.6611 36.54 30.0156 35.9541 30.2676C36.6455 30.4609 37.1904 30.8301 37.5889 31.375C37.9932 31.9141 38.1953 32.5586 38.1953 33.3086C38.1953 34.457 37.8232 35.3594 37.0791 36.0156C36.335 36.6719 35.2832 37 33.9238 37H29.4854ZM31.1729 31.0146V35.6201H33.959C34.7441 35.6201 35.3623 35.418 35.8135 35.0137C36.2705 34.6035 36.499 34.041 36.499 33.3262C36.499 31.7852 35.6611 31.0146 33.9854 31.0146H31.1729ZM31.1729 29.6611H33.7217C34.46 29.6611 35.0488 29.4766 35.4883 29.1074C35.9336 28.7383 36.1562 28.2373 36.1562 27.6045C36.1562 26.9014 35.9512 26.3916 35.541 26.0752C35.1309 25.7529 34.5068 25.5918 33.6689 25.5918H31.1729V29.6611ZM49.709 24.2031V32.9043C49.7031 34.1113 49.3223 35.0986 48.5664 35.8662C47.8164 36.6338 46.7969 37.0645 45.5078 37.1582L45.0596 37.1758C43.6592 37.1758 42.543 36.7979 41.7109 36.042C40.8789 35.2861 40.457 34.2461 40.4453 32.9219V24.2031H42.1152V32.8691C42.1152 33.7949 42.3701 34.5156 42.8799 35.0312C43.3896 35.541 44.1162 35.7959 45.0596 35.7959C46.0146 35.7959 46.7441 35.541 47.248 35.0312C47.7578 34.5215 48.0127 33.8037 48.0127 32.8779V24.2031H49.709ZM56.2744 30.6279L59.6143 24.2031H61.5303L57.1182 32.2275V37H55.4307V32.2275L51.0186 24.2031H52.9521L56.2744 30.6279ZM77.4824 37H75.7861L69.3438 27.1387V37H67.6475V24.2031H69.3438L75.8037 34.1084V24.2031H77.4824V37ZM90.3232 31.0146C90.3232 32.2686 90.1123 33.3643 89.6904 34.3018C89.2686 35.2334 88.6709 35.9453 87.8975 36.4375C87.124 36.9297 86.2217 37.1758 85.1904 37.1758C84.1826 37.1758 83.2891 36.9297 82.5098 36.4375C81.7305 35.9395 81.124 35.2334 80.6904 34.3193C80.2627 33.3994 80.043 32.3359 80.0312 31.1289V30.2061C80.0312 28.9756 80.2451 27.8887 80.6729 26.9453C81.1006 26.002 81.7041 25.2812 82.4834 24.7832C83.2686 24.2793 84.165 24.0273 85.1729 24.0273C86.1982 24.0273 87.1006 24.2764 87.8799 24.7744C88.665 25.2666 89.2686 25.9844 89.6904 26.9277C90.1123 27.8652 90.3232 28.958 90.3232 30.2061V31.0146ZM88.6445 30.1885C88.6445 28.6709 88.3398 27.5078 87.7305 26.6992C87.1211 25.8848 86.2686 25.4775 85.1729 25.4775C84.1064 25.4775 83.2656 25.8848 82.6504 26.6992C82.041 27.5078 81.7275 28.6328 81.71 30.0742V31.0146C81.71 32.4854 82.0176 33.6426 82.6328 34.4863C83.2539 35.3242 84.1064 35.7432 85.1904 35.7432C86.2803 35.7432 87.124 35.3477 87.7217 34.5566C88.3193 33.7598 88.627 32.6201 88.6445 31.1377V30.1885ZM95.6143 32.9658L95.8604 34.6533L96.2207 33.1328L98.752 24.2031H100.176L102.646 33.1328L102.997 34.6797L103.27 32.957L105.256 24.2031H106.952L103.85 37H102.312L99.6748 27.6748L99.4727 26.6992L99.2705 27.6748L96.5371 37H94.999L91.9053 24.2031H93.5928L95.6143 32.9658Z" fill="white"/>
</svg>
